<?xml version="1.0" encoding="UTF-8"?>
<svg id="Layer_1" data-name="Layer 1" xmlns="http://www.w3.org/2000/svg" viewBox="0 0 655.66 193.02">
  <defs>
    <style>
      .cls-1, .cls-2 {
        fill: #313234;
      }

      .cls-3 {
        fill: #ec9700;
      }

      .cls-2 {
        font-family: Roboto-CondensedRegular, Roboto;
        font-size: 45.16px;
        font-variation-settings: 'wght' 400, 'wdth' 75;
      }
    </style>
  </defs>
  <text class="cls-2" transform="translate(395.35 68.59)"><tspan x="0" y="0">MED</tspan><tspan x="0" y="45.16">AFRIQUE</tspan><tspan x="0" y="90.31">MONTAGE</tspan></text>
  <g>
    <rect class="cls-1" x="152.17" y="131.78" width="80.48" height="27.72"/>
    <polygon class="cls-1" points="166.31 35.93 138.4 35.93 137.69 35.93 95.48 107.33 52.37 35.93 23.76 35.93 23.76 159.5 55.71 159.5 55.71 95.77 87.13 147.33 102.58 147.33 132.9 96.17 134.22 93.95 139.62 84.83 152.17 63.65 166.35 63.65 232.64 63.65 232.64 35.93 166.31 35.93"/>
    <rect class="cls-1" x="152.17" y="83.85" width="80.48" height="27.72"/>
    <g>
      <path class="cls-1" d="M363.33,64.88c-5.82-9.18-13.91-16.3-24.27-21.36-10.36-5.06-22.31-7.59-35.84-7.59h-58.43v5.52l34.95,34.95v-12.58h21.71c7.17,0,13.39,1.36,18.62,4.06,5.23,2.7,9.32,6.56,12.27,11.56,2.94,5.01,4.41,11.09,4.41,18.27s-1.47,12.98-4.41,18.09c-2.95,5.12-7.04,9.03-12.27,11.74-5.24,2.71-11.45,4.06-18.62,4.06h-21.71v-12.58l-34.95,34.95v5.52h58.43c13.53,0,25.48-2.53,35.84-7.59,10.36-5.06,18.45-12.21,24.27-21.45,5.83-9.24,8.74-20.15,8.74-32.75s-2.91-23.66-8.74-32.84Z"/>
      <polygon class="cls-3" points="287.5 97.72 279.74 105.47 244.79 140.43 244.79 55.01 279.74 89.96 287.5 97.72"/>
    </g>
    <polyline class="cls-1" points="152.17 63.65 139.62 84.83 134.22 93.95 132.9 96.17"/>
  </g>
</svg>