<?xml version="1.0" encoding="UTF-8"?>
<svg id="Layer_1" data-name="Layer 1" xmlns="http://www.w3.org/2000/svg" viewBox="0 0 680.17 196.12">
  <defs>
    <style>
      .cls-1 {
        font-family: Roboto-CondensedRegular, Roboto;
        font-size: 45.16px;
        font-variation-settings: 'wght' 400, 'wdth' 75;
      }

      .cls-1, .cls-2 {
        fill: #fff;
      }

      .cls-3 {
        fill: #ec9700;
      }
    </style>
  </defs>
  <text class="cls-1" transform="translate(408.66 72.42)"><tspan x="0" y="0">MED</tspan><tspan x="0" y="45.16">AFRIQUE</tspan><tspan x="0" y="90.31">MONTAGE</tspan></text>
  <g>
    <rect class="cls-2" x="165.48" y="135.62" width="80.48" height="27.72"/>
    <polygon class="cls-2" points="179.62 39.77 151.71 39.77 151 39.77 108.8 111.16 65.69 39.77 37.07 39.77 37.07 163.34 69.02 163.34 69.02 99.61 100.45 151.17 115.89 151.17 146.22 100.01 147.53 97.78 152.93 88.66 165.48 67.49 179.66 67.49 245.96 67.49 245.96 39.77 179.62 39.77"/>
    <rect class="cls-2" x="165.48" y="87.69" width="80.48" height="27.72"/>
    <g>
      <path class="cls-2" d="M376.64,68.72c-5.82-9.18-13.91-16.3-24.27-21.36-10.36-5.06-22.31-7.59-35.84-7.59h-58.43v5.52l34.95,34.95v-12.58h21.71c7.17,0,13.39,1.36,18.62,4.06,5.23,2.7,9.32,6.56,12.27,11.56,2.94,5.01,4.41,11.09,4.41,18.27s-1.47,12.98-4.41,18.09c-2.95,5.12-7.04,9.03-12.27,11.74-5.24,2.71-11.45,4.06-18.62,4.06h-21.71v-12.58l-34.95,34.95v5.52h58.43c13.53,0,25.48-2.53,35.84-7.59,10.36-5.06,18.45-12.21,24.27-21.45,5.83-9.24,8.74-20.15,8.74-32.75s-2.91-23.66-8.74-32.84Z"/>
      <polygon class="cls-3" points="300.81 101.56 293.05 109.31 258.1 144.27 258.1 58.85 293.05 93.8 300.81 101.56"/>
    </g>
    <polyline class="cls-2" points="165.48 67.49 152.93 88.66 147.53 97.78 146.22 100.01"/>
  </g>
</svg>